<svg width="448" height="512" viewBox="0 0 448 512" fill="none" xmlns="http://www.w3.org/2000/svg">
<path d="M48 32C21.5 32 0 53.5 0 80V432C0 458.5 21.5 480 48 480H400C426.5 480 448 458.5 448 432V80C448 53.5 426.5 32 400 32H48ZM274.068 96L359.058 210.55L336.15 227.547L251.162 112.997L274.068 96ZM221.232 141.822L330.977 233.09L312.867 254.893L203.125 163.617L221.232 141.822ZM179.105 200.943L308.438 261.539L296.615 287.406L167.285 227.178L179.105 200.943ZM154.72 265.61L294.394 294.796L288.481 322.886L148.81 293.69L154.72 265.608V265.61ZM88.94 301.82H117.4V387.552H317.306V301.819H345.755V416H88.94V301.818V301.82ZM145.849 330.276H288.479V358.726H145.85V330.276H145.849Z" fill="#AFB0B1"/>
</svg>
