<svg width="13" height="13" viewBox="0 0 13 13" fill="none" xmlns="http://www.w3.org/2000/svg">
<path d="M6.92315 1.28646C6.71677 1.02917 6.28344 1.02917 6.07707 1.28646L1.74373 6.70313C1.68016 6.78286 1.64037 6.87891 1.62892 6.98025C1.61747 7.08158 1.63483 7.18409 1.679 7.276C1.72318 7.36791 1.79238 7.44551 1.87866 7.49987C1.96494 7.55423 2.0648 7.58316 2.16677 7.58333H4.33344V11.375C4.33344 11.5187 4.39051 11.6564 4.49209 11.758C4.59367 11.8596 4.73145 11.9167 4.87511 11.9167H8.12511C8.26877 11.9167 8.40654 11.8596 8.50812 11.758C8.60971 11.6564 8.66677 11.5187 8.66677 11.375V7.58333H10.8334C10.9354 7.58316 11.0353 7.55423 11.1216 7.49987C11.2078 7.44551 11.277 7.36791 11.3212 7.276C11.3654 7.18409 11.3827 7.08158 11.3713 6.98025C11.3598 6.87891 11.3201 6.78286 11.2565 6.70313L6.92315 1.28646ZM8.12511 6.5H7.58344V10.8333H5.41677V6.5H3.29398L6.50011 2.49221L9.70623 6.5H8.12511Z" fill="#AFB0B1"/>
</svg>
