<svg width="36" height="36" viewBox="0 0 36 36" fill="none" xmlns="http://www.w3.org/2000/svg">
<g clip-path="url(#clip0_87_2)">
<path d="M18 17C19.3845 17 20.7378 16.5895 21.889 15.8203C23.0401 15.0511 23.9373 13.9579 24.4672 12.6788C24.997 11.3997 25.1356 9.99224 24.8655 8.63437C24.5954 7.2765 23.9287 6.02922 22.9497 5.05026C21.9708 4.07129 20.7235 3.4046 19.3656 3.13451C18.0078 2.86441 16.6003 3.00303 15.3212 3.53285C14.0421 4.06266 12.9489 4.95987 12.1797 6.11101C11.4105 7.26216 11 8.61553 11 10C11 11.8565 11.7375 13.637 13.0503 14.9497C14.363 16.2625 16.1435 17 18 17ZM18 5C18.9889 5 19.9556 5.29325 20.7779 5.84265C21.6001 6.39206 22.241 7.17296 22.6194 8.08659C22.9978 9.00022 23.0969 10.0055 22.9039 10.9755C22.711 11.9454 22.2348 12.8363 21.5355 13.5355C20.8363 14.2348 19.9454 14.711 18.9755 14.9039C18.0055 15.0969 17.0002 14.9978 16.0866 14.6194C15.173 14.241 14.3921 13.6001 13.8427 12.7779C13.2932 11.9556 13 10.9889 13 10C13 8.67392 13.5268 7.40215 14.4645 6.46447C15.4021 5.52679 16.6739 5 18 5Z" fill="#AFB0B1"/>
<path d="M30.47 24.37C28.8663 22.675 26.9338 21.3249 24.7905 20.4022C22.6473 19.4795 20.3384 19.0036 18.005 19.0036C15.6716 19.0036 13.3627 19.4795 11.2195 20.4022C9.07623 21.3249 7.14369 22.675 5.54 24.37C5.19231 24.7414 4.99921 25.2313 5 25.74V31C5 31.5304 5.21072 32.0391 5.58579 32.4142C5.96086 32.7893 6.46957 33 7 33H29C29.5304 33 30.0391 32.7893 30.4142 32.4142C30.7893 32.0391 31 31.5304 31 31V25.74C31.0035 25.2326 30.814 24.7429 30.47 24.37ZM29 31H7V25.73C8.41723 24.2377 10.1233 23.0493 12.0144 22.2373C13.9054 21.4252 15.942 21.0065 18 21.0065C20.0581 21.0065 22.0946 21.4252 23.9856 22.2373C25.8767 23.0493 27.5828 24.2377 29 25.73V31Z" fill="#AFB0B1"/>
</g>
<defs>
<clipPath id="clip0_87_2">
<rect width="36" height="36" fill="white"/>
</clipPath>
</defs>
</svg>
