<svg width="56" height="56" viewBox="0 0 56 56" fill="none" xmlns="http://www.w3.org/2000/svg">
<g filter="url(#filter0_d_74_660)">
<g clip-path="url(#clip0_74_660)">
<path d="M37.5625 10H18.4375C13.7776 10 10 13.7776 10 18.4375V37.5625C10 42.2224 13.7776 46 18.4375 46H37.5625C42.2224 46 46 42.2224 46 37.5625V18.4375C46 13.7776 42.2224 10 37.5625 10Z" fill="#1C1C22"/>
<path d="M20.9035 32H18.439V24.7273H20.9532C21.6753 24.7273 22.2955 24.8729 22.814 25.1641C23.3348 25.4529 23.7349 25.8684 24.0143 26.4105C24.2936 26.9527 24.4333 27.6013 24.4333 28.3565C24.4333 29.1141 24.2925 29.7652 24.0107 30.3097C23.7314 30.8542 23.3277 31.272 22.7998 31.5632C22.2742 31.8544 21.6421 32 20.9035 32ZM19.7565 30.8601H20.8396C21.3462 30.8601 21.7688 30.7678 22.1073 30.5831C22.4459 30.3961 22.7004 30.1179 22.8708 29.7486C23.0413 29.3769 23.1265 28.9129 23.1265 28.3565C23.1265 27.8002 23.0413 27.3385 22.8708 26.9716C22.7004 26.6023 22.4482 26.3265 22.1144 26.1442C21.783 25.9595 21.3711 25.8672 20.8786 25.8672H19.7565V30.8601ZM25.6851 32V24.7273H30.4152V25.8317H27.0026V27.8061H30.1702V28.9105H27.0026V30.8956H30.4436V32H25.6851ZM32.7323 24.7273L34.6251 30.4517H34.6997L36.5889 24.7273H38.0377L35.4738 32H33.8474L31.287 24.7273H32.7323Z" fill="white"/>
</g>
</g>
<defs>
<filter id="filter0_d_74_660" x="0" y="0" width="56" height="56" filterUnits="userSpaceOnUse" color-interpolation-filters="sRGB">
<feFlood flood-opacity="0" result="BackgroundImageFix"/>
<feColorMatrix in="SourceAlpha" type="matrix" values="0 0 0 0 0 0 0 0 0 0 0 0 0 0 0 0 0 0 127 0" result="hardAlpha"/>
<feOffset/>
<feGaussianBlur stdDeviation="5"/>
<feComposite in2="hardAlpha" operator="out"/>
<feColorMatrix type="matrix" values="0 0 0 0 0.0916667 0 0 0 0 0.0916667 0 0 0 0 0.0916667 0 0 0 0.69 0"/>
<feBlend mode="normal" in2="BackgroundImageFix" result="effect1_dropShadow_74_660"/>
<feBlend mode="normal" in="SourceGraphic" in2="effect1_dropShadow_74_660" result="shape"/>
</filter>
<clipPath id="clip0_74_660">
<rect x="10" y="10" width="36" height="36" rx="10" fill="white"/>
</clipPath>
</defs>
</svg>
