<svg width="32" height="32" viewBox="0 0 32 32" fill="none" xmlns="http://www.w3.org/2000/svg">
<path d="M16 4C14.4241 4 12.8637 4.30484 11.4078 4.89712C9.95189 5.4894 8.62902 6.35751 7.51472 7.4519C5.26428 9.66211 4 12.6598 4 15.7855C4 20.9947 7.444 25.4143 12.208 26.9817C12.808 27.076 13 26.7107 13 26.3925V24.4007C9.676 25.1078 8.968 22.8215 8.968 22.8215C8.416 21.4543 7.636 21.089 7.636 21.089C6.544 20.3583 7.72 20.3819 7.72 20.3819C8.92 20.4644 9.556 21.5958 9.556 21.5958C10.6 23.3872 12.364 22.8568 13.048 22.574C13.156 21.8079 13.468 21.2893 13.804 20.9947C11.14 20.7001 8.344 19.6865 8.344 15.1962C8.344 13.888 8.8 12.8391 9.58 12.0024C9.46 11.7077 9.04 10.482 9.7 8.89099C9.7 8.89099 10.708 8.57278 13 10.0931C13.948 9.83383 14.98 9.70419 16 9.70419C17.02 9.70419 18.052 9.83383 19 10.0931C21.292 8.57278 22.3 8.89099 22.3 8.89099C22.96 10.482 22.54 11.7077 22.42 12.0024C23.2 12.8391 23.656 13.888 23.656 15.1962C23.656 19.6983 20.848 20.6883 18.172 20.9829C18.604 21.3483 19 22.0672 19 23.1632V26.3925C19 26.7107 19.192 27.0878 19.804 26.9817C24.568 25.4025 28 20.9947 28 15.7855C28 14.2378 27.6896 12.7053 27.0866 11.2754C26.4835 9.84551 25.5996 8.54628 24.4853 7.4519C23.371 6.35751 22.0481 5.4894 20.5922 4.89712C19.1363 4.30484 17.5759 4 16 4Z" fill="url(#paint0_linear_427_20)"/>
<defs>
<linearGradient id="paint0_linear_427_20" x1="4" y1="15.5" x2="28" y2="15.5" gradientUnits="userSpaceOnUse">
<stop stop-color="#FE5E69"/>
<stop offset="0.690625" stop-color="#FF9851"/>
<stop offset="1" stop-color="#FFA54C"/>
</linearGradient>
</defs>
</svg>
