<svg width="33" height="33" viewBox="0 0 33 33" fill="none" xmlns="http://www.w3.org/2000/svg">
<path d="M25.9875 27.9125L18.2875 20.2125C17.6 20.7625 16.8094 21.1979 15.9156 21.5187C15.0219 21.8396 14.0708 22 13.0625 22C10.5646 22 8.45075 21.1351 6.721 19.4054C4.99033 17.6747 4.125 15.5604 4.125 13.0625C4.125 10.5646 4.99033 8.45029 6.721 6.71962C8.45075 4.98988 10.5646 4.125 13.0625 4.125C15.5604 4.125 17.6747 4.98988 19.4054 6.71962C21.1351 8.45029 22 10.5646 22 13.0625C22 14.0708 21.8396 15.0219 21.5187 15.9156C21.1979 16.8094 20.7625 17.6 20.2125 18.2875L27.9469 26.0219C28.199 26.274 28.325 26.5833 28.325 26.95C28.325 27.3167 28.1875 27.6375 27.9125 27.9125C27.6604 28.1646 27.3396 28.2906 26.95 28.2906C26.5604 28.2906 26.2396 28.1646 25.9875 27.9125ZM13.0625 19.25C14.7812 19.25 16.2424 18.6487 17.446 17.446C18.6487 16.2424 19.25 14.7812 19.25 13.0625C19.25 11.3437 18.6487 9.88258 17.446 8.679C16.2424 7.47633 14.7812 6.875 13.0625 6.875C11.3438 6.875 9.88258 7.47633 8.679 8.679C7.47633 9.88258 6.875 11.3437 6.875 13.0625C6.875 14.7812 7.47633 16.2424 8.679 17.446C9.88258 18.6487 11.3438 19.25 13.0625 19.25Z" fill="#86878B"/>
</svg>
