<svg width="12" height="10" viewBox="0 0 12 10" fill="none" xmlns="http://www.w3.org/2000/svg">
<path d="M10.6678 8.68613L10.6664 8.68855C10.6119 8.78348 10.5332 8.8623 10.4384 8.917C10.3436 8.9717 10.236 9.00034 10.1265 9H10.125L1.87499 9L1.87312 9C1.76366 9.00041 1.65603 8.97185 1.56118 8.91721C1.46632 8.86257 1.38761 8.7838 1.33305 8.6889C1.27848 8.59401 1.25 8.48636 1.25049 8.37689C1.25099 8.26743 1.28044 8.16004 1.33586 8.06564L1.33587 8.06565L1.33752 8.06281L5.45783 0.937806L5.45833 0.936944C5.51313 0.841744 5.59205 0.762668 5.68714 0.707684C5.78224 0.652699 5.89015 0.623749 5.99999 0.623749C6.10984 0.623749 6.21774 0.652699 6.31284 0.707684C6.40793 0.762668 6.48686 0.841744 6.54166 0.936945L6.54216 0.937805L10.6625 8.06281L10.6624 8.06282L10.6652 8.06746C10.7207 8.16102 10.7501 8.26769 10.7506 8.37645C10.751 8.48521 10.7225 8.59212 10.6678 8.68613Z" stroke="#AFB0B1"/>
</svg>
