<svg width="11" height="10" viewBox="0 0 11 10" fill="none" xmlns="http://www.w3.org/2000/svg">
<path d="M10.8422 9.19118C10.7391 9.36997 10.5903 9.51842 10.4109 9.62144C10.2315 9.72447 10.0279 9.7784 9.82081 9.77777H1.17804C0.970928 9.77854 0.767298 9.72474 0.58783 9.62183C0.408361 9.51893 0.259446 9.37058 0.156205 9.19185C0.0529649 9.01312 -0.000923654 8.81038 1.19791e-05 8.60421C0.000947612 8.39805 0.056674 8.1958 0.161532 8.01801L4.47801 0.587893C4.58135 0.409194 4.73017 0.260763 4.90949 0.157553C5.08881 0.0543426 5.29229 0 5.49943 0C5.70656 0 5.91004 0.0543426 6.08936 0.157553C6.26868 0.260763 6.41751 0.409194 6.52085 0.587893L10.8373 8.01801C10.943 8.19542 10.9991 8.39769 11 8.60393C11.0009 8.81017 10.9464 9.0129 10.8422 9.19118Z" fill="url(#paint0_linear_74_2147)"/>
<defs>
<linearGradient id="paint0_linear_74_2147" x1="-5.55632e-08" y1="4.87375" x2="11" y2="4.87375" gradientUnits="userSpaceOnUse">
<stop stop-color="#D366B2"/>
<stop offset="0.445833" stop-color="#FF5E69"/>
<stop offset="1" stop-color="#FFA84B"/>
</linearGradient>
</defs>
</svg>
