<svg width="300" height="300" viewBox="0 0 300 300" fill="none" xmlns="http://www.w3.org/2000/svg">
<rect width="300" height="300" rx="100" fill="#161513"/>
<g clip-path="url(#clip0_57_70)">
<path d="M120.125 98.4375L63.3027 150L120.125 201.563C122.304 203.559 123.622 206.354 123.794 209.338C123.966 212.323 122.977 215.256 121.043 217.5C119.088 219.725 116.351 221.072 113.429 221.247C110.507 221.423 107.635 220.413 105.437 218.438L39.3438 158.438C38.1846 157.374 37.2576 156.073 36.623 154.619C35.9885 153.165 35.6605 151.592 35.6605 150C35.6605 148.408 35.9885 146.835 36.623 145.381C37.2576 143.927 38.1846 142.626 39.3438 141.563L105.437 81.5625C107.629 79.5734 110.504 78.5547 113.43 78.7305C116.357 78.9063 119.095 80.2622 121.043 82.5C122.991 84.7378 123.988 87.6741 123.816 90.6629C123.644 93.6518 122.316 96.4484 120.125 98.4375ZM259.656 141.563L193.562 81.5625C192.478 80.5776 191.213 79.8206 189.842 79.3347C188.47 78.8487 187.019 78.6434 185.57 78.7305C184.121 78.8176 182.702 79.1953 181.396 79.842C180.09 80.4888 178.921 81.392 177.957 82.5C176.993 83.608 176.251 84.8992 175.776 86.2998C175.3 87.7004 175.099 89.183 175.184 90.6629C175.269 92.1429 175.639 93.5912 176.272 94.9251C176.906 96.2591 177.79 97.4526 178.875 98.4375L235.697 150L178.875 201.563C176.696 203.559 175.378 206.354 175.206 209.338C175.034 212.323 176.023 215.256 177.957 217.5C179.912 219.725 182.649 221.072 185.571 221.247C188.493 221.423 191.365 220.413 193.562 218.438L259.656 158.438C260.815 157.374 261.742 156.073 262.377 154.619C263.012 153.165 263.339 151.592 263.339 150C263.339 148.408 263.012 146.835 262.377 145.381C261.742 143.927 260.815 142.626 259.656 141.563Z" fill="#8B8B8B"/>
<g filter="url(#filter0_d_57_70)">
<rect x="129.257" y="209.597" width="22.866" height="112.509" rx="11.433" transform="rotate(132.244 129.257 209.597)" fill="url(#paint0_linear_57_70)"/>
</g>
<g filter="url(#filter1_d_57_70)">
<rect x="268.661" y="149.639" width="22.866" height="112.509" rx="11.433" transform="rotate(132.244 268.661 149.639)" fill="url(#paint1_linear_57_70)"/>
</g>
<rect x="119" y="170.027" width="72.1625" height="15.5188" rx="7.7594" transform="rotate(-45 119 170.027)" fill="#8B8B8B"/>
<g filter="url(#filter2_d_57_70)">
<path d="M175.513 165.54C178.544 168.57 178.544 173.483 175.513 176.513V176.513C172.483 179.544 167.57 179.544 164.54 176.513L124.487 136.46C121.456 133.43 121.456 128.517 124.487 125.487V125.487C127.517 122.456 132.43 122.456 135.46 125.487L175.513 165.54Z" fill="url(#paint2_linear_57_70)"/>
</g>
</g>
<defs>
<filter id="filter0_d_57_70" x="9.31248" y="116.675" width="141.227" height="135.133" filterUnits="userSpaceOnUse" color-interpolation-filters="sRGB">
<feFlood flood-opacity="0" result="BackgroundImageFix"/>
<feColorMatrix in="SourceAlpha" type="matrix" values="0 0 0 0 0 0 0 0 0 0 0 0 0 0 0 0 0 0 127 0" result="hardAlpha"/>
<feMorphology radius="6" operator="dilate" in="SourceAlpha" result="effect1_dropShadow_57_70"/>
<feOffset dy="4"/>
<feGaussianBlur stdDeviation="10"/>
<feComposite in2="hardAlpha" operator="out"/>
<feColorMatrix type="matrix" values="0 0 0 0 0.0862745 0 0 0 0 0.0823529 0 0 0 0 0.0745098 0 0 0 0.5 0"/>
<feBlend mode="normal" in2="BackgroundImageFix" result="effect1_dropShadow_57_70"/>
<feBlend mode="normal" in="SourceGraphic" in2="effect1_dropShadow_57_70" result="shape"/>
</filter>
<filter id="filter1_d_57_70" x="148.717" y="56.7169" width="141.227" height="135.133" filterUnits="userSpaceOnUse" color-interpolation-filters="sRGB">
<feFlood flood-opacity="0" result="BackgroundImageFix"/>
<feColorMatrix in="SourceAlpha" type="matrix" values="0 0 0 0 0 0 0 0 0 0 0 0 0 0 0 0 0 0 127 0" result="hardAlpha"/>
<feMorphology radius="6" operator="dilate" in="SourceAlpha" result="effect1_dropShadow_57_70"/>
<feOffset dy="4"/>
<feGaussianBlur stdDeviation="10"/>
<feComposite in2="hardAlpha" operator="out"/>
<feColorMatrix type="matrix" values="0 0 0 0 0.0862745 0 0 0 0 0.0823529 0 0 0 0 0.0745098 0 0 0 0.5 0"/>
<feBlend mode="normal" in2="BackgroundImageFix" result="effect1_dropShadow_57_70"/>
<feBlend mode="normal" in="SourceGraphic" in2="effect1_dropShadow_57_70" result="shape"/>
</filter>
<filter id="filter2_d_57_70" x="96.2141" y="101.214" width="107.572" height="107.572" filterUnits="userSpaceOnUse" color-interpolation-filters="sRGB">
<feFlood flood-opacity="0" result="BackgroundImageFix"/>
<feColorMatrix in="SourceAlpha" type="matrix" values="0 0 0 0 0 0 0 0 0 0 0 0 0 0 0 0 0 0 127 0" result="hardAlpha"/>
<feMorphology radius="6" operator="dilate" in="SourceAlpha" result="effect1_dropShadow_57_70"/>
<feOffset dy="4"/>
<feGaussianBlur stdDeviation="10"/>
<feComposite in2="hardAlpha" operator="out"/>
<feColorMatrix type="matrix" values="0 0 0 0 0.0862745 0 0 0 0 0.0823529 0 0 0 0 0.0745098 0 0 0 0.5 0"/>
<feBlend mode="normal" in2="BackgroundImageFix" result="effect1_dropShadow_57_70"/>
<feBlend mode="normal" in="SourceGraphic" in2="effect1_dropShadow_57_70" result="shape"/>
</filter>
<linearGradient id="paint0_linear_57_70" x1="151.936" y1="321.729" x2="112.86" y2="243.747" gradientUnits="userSpaceOnUse">
<stop offset="0.244469" stop-color="#B16CEA"/>
<stop offset="1" stop-color="#FF5E69"/>
</linearGradient>
<linearGradient id="paint1_linear_57_70" x1="291.34" y1="261.771" x2="252.264" y2="183.789" gradientUnits="userSpaceOnUse">
<stop stop-color="#FF5E69"/>
<stop offset="0.794792" stop-color="#B16CEA"/>
</linearGradient>
<linearGradient id="paint2_linear_57_70" x1="123" y1="153.5" x2="176.5" y2="154" gradientUnits="userSpaceOnUse">
<stop offset="0.0656249" stop-color="#FF5E69"/>
<stop offset="0.461458" stop-color="#FF8A56"/>
<stop offset="1" stop-color="#FF5E69"/>
</linearGradient>
<clipPath id="clip0_57_70">
<rect width="235" height="240" fill="white" transform="translate(32 30)"/>
</clipPath>
</defs>
</svg>
