<svg width="149" height="32" viewBox="0 0 149 32" fill="none" xmlns="http://www.w3.org/2000/svg">
<path d="M11.4151 23.2667L5.8818 26.6C5.63735 26.7556 5.3818 26.8222 5.11513 26.8C4.84847 26.7778 4.61513 26.6889 4.41513 26.5333C4.21513 26.3778 4.05958 26.1836 3.94847 25.9507C3.83735 25.7169 3.81513 25.4556 3.8818 25.1667L5.34847 18.8667L0.448466 14.6333C0.226244 14.4333 0.0875774 14.2053 0.0324663 13.9493C-0.0235337 13.6942 -0.00708936 13.4444 0.0817995 13.2C0.170688 12.9556 0.304022 12.7556 0.481799 12.6C0.659577 12.4444 0.904022 12.3444 1.21513 12.3L7.6818 11.7333L10.1818 5.8C10.2929 5.53333 10.4654 5.33333 10.6991 5.2C10.932 5.06667 11.1707 5 11.4151 5C11.6596 5 11.8987 5.06667 12.1325 5.2C12.3654 5.33333 12.5374 5.53333 12.6485 5.8L15.1485 11.7333L21.6151 12.3C21.9262 12.3444 22.1707 12.4444 22.3485 12.6C22.5262 12.7556 22.6596 12.9556 22.7485 13.2C22.8374 13.4444 22.8542 13.6942 22.7991 13.9493C22.7431 14.2053 22.604 14.4333 22.3818 14.6333L17.4818 18.8667L18.9485 25.1667C19.0151 25.4556 18.9929 25.7169 18.8818 25.9507C18.7707 26.1836 18.6151 26.3778 18.4151 26.5333C18.2151 26.6889 17.9818 26.7778 17.7151 26.8C17.4485 26.8222 17.1929 26.7556 16.9485 26.6L11.4151 23.2667Z" fill="url(#paint0_linear_35_42)"/>
<path d="M44.4151 23.2667L38.8818 26.6C38.6374 26.7556 38.3818 26.8222 38.1151 26.8C37.8485 26.7778 37.6151 26.6889 37.4151 26.5333C37.2151 26.3778 37.0596 26.1836 36.9485 25.9507C36.8374 25.7169 36.8151 25.4556 36.8818 25.1667L38.3485 18.8667L33.4485 14.6333C33.2262 14.4333 33.0876 14.2053 33.0325 13.9493C32.9765 13.6942 32.9929 13.4444 33.0818 13.2C33.1707 12.9556 33.304 12.7556 33.4818 12.6C33.6596 12.4444 33.904 12.3444 34.2151 12.3L40.6818 11.7333L43.1818 5.8C43.2929 5.53333 43.4654 5.33333 43.6991 5.2C43.932 5.06667 44.1707 5 44.4151 5C44.6596 5 44.8987 5.06667 45.1325 5.2C45.3654 5.33333 45.5374 5.53333 45.6485 5.8L48.1485 11.7333L54.6151 12.3C54.9262 12.3444 55.1707 12.4444 55.3485 12.6C55.5262 12.7556 55.6596 12.9556 55.7485 13.2C55.8374 13.4444 55.8542 13.6942 55.7991 13.9493C55.7431 14.2053 55.604 14.4333 55.3818 14.6333L50.4818 18.8667L51.9485 25.1667C52.0151 25.4556 51.9929 25.7169 51.8818 25.9507C51.7707 26.1836 51.6151 26.3778 51.4151 26.5333C51.2151 26.6889 50.9818 26.7778 50.7151 26.8C50.4485 26.8222 50.1929 26.7556 49.9485 26.6L44.4151 23.2667Z" fill="url(#paint1_linear_35_42)"/>
<path d="M75.4151 23.2667L69.8818 26.6C69.6374 26.7556 69.3818 26.8222 69.1151 26.8C68.8485 26.7778 68.6151 26.6889 68.4151 26.5333C68.2151 26.3778 68.0596 26.1836 67.9485 25.9507C67.8374 25.7169 67.8151 25.4556 67.8818 25.1667L69.3485 18.8667L64.4485 14.6333C64.2262 14.4333 64.0876 14.2053 64.0325 13.9493C63.9765 13.6942 63.9929 13.4444 64.0818 13.2C64.1707 12.9556 64.304 12.7556 64.4818 12.6C64.6596 12.4444 64.904 12.3444 65.2151 12.3L71.6818 11.7333L74.1818 5.8C74.2929 5.53333 74.4654 5.33333 74.6991 5.2C74.932 5.06667 75.1707 5 75.4151 5C75.6596 5 75.8987 5.06667 76.1325 5.2C76.3654 5.33333 76.5374 5.53333 76.6485 5.8L79.1485 11.7333L85.6151 12.3C85.9262 12.3444 86.1707 12.4444 86.3485 12.6C86.5262 12.7556 86.6596 12.9556 86.7485 13.2C86.8374 13.4444 86.8542 13.6942 86.7991 13.9493C86.7431 14.2053 86.604 14.4333 86.3818 14.6333L81.4818 18.8667L82.9485 25.1667C83.0151 25.4556 82.9929 25.7169 82.8818 25.9507C82.7707 26.1836 82.6151 26.3778 82.4151 26.5333C82.2151 26.6889 81.9818 26.7778 81.7151 26.8C81.4485 26.8222 81.1929 26.7556 80.9485 26.6L75.4151 23.2667Z" fill="url(#paint2_linear_35_42)"/>
<path d="M106.415 23.2667L100.882 26.6C100.637 26.7556 100.382 26.8222 100.115 26.8C99.8485 26.7778 99.6151 26.6889 99.4151 26.5333C99.2151 26.3778 99.0596 26.1836 98.9485 25.9507C98.8374 25.7169 98.8151 25.4556 98.8818 25.1667L100.348 18.8667L95.4485 14.6333C95.2262 14.4333 95.0876 14.2053 95.0325 13.9493C94.9765 13.6942 94.9929 13.4444 95.0818 13.2C95.1707 12.9556 95.304 12.7556 95.4818 12.6C95.6596 12.4444 95.904 12.3444 96.2151 12.3L102.682 11.7333L105.182 5.8C105.293 5.53333 105.465 5.33333 105.699 5.2C105.932 5.06667 106.171 5 106.415 5C106.66 5 106.899 5.06667 107.132 5.2C107.365 5.33333 107.537 5.53333 107.648 5.8L110.148 11.7333L116.615 12.3C116.926 12.3444 117.171 12.4444 117.348 12.6C117.526 12.7556 117.66 12.9556 117.748 13.2C117.837 13.4444 117.854 13.6942 117.799 13.9493C117.743 14.2053 117.604 14.4333 117.382 14.6333L112.482 18.8667L113.948 25.1667C114.015 25.4556 113.993 25.7169 113.882 25.9507C113.771 26.1836 113.615 26.3778 113.415 26.5333C113.215 26.6889 112.982 26.7778 112.715 26.8C112.448 26.8222 112.193 26.7556 111.948 26.6L106.415 23.2667Z" fill="url(#paint3_linear_35_42)"/>
<path d="M137.415 23.2667L131.882 26.6C131.637 26.7556 131.382 26.8222 131.115 26.8C130.848 26.7778 130.615 26.6889 130.415 26.5333C130.215 26.3778 130.06 26.1836 129.948 25.9507C129.837 25.7169 129.815 25.4556 129.882 25.1667L131.348 18.8667L126.448 14.6333C126.226 14.4333 126.088 14.2053 126.032 13.9493C125.976 13.6942 125.993 13.4444 126.082 13.2C126.171 12.9556 126.304 12.7556 126.482 12.6C126.66 12.4444 126.904 12.3444 127.215 12.3L133.682 11.7333L136.182 5.8C136.293 5.53333 136.465 5.33333 136.699 5.2C136.932 5.06667 137.171 5 137.415 5C137.66 5 137.899 5.06667 138.132 5.2C138.365 5.33333 138.537 5.53333 138.648 5.8L141.148 11.7333L147.615 12.3C147.926 12.3444 148.171 12.4444 148.348 12.6C148.526 12.7556 148.66 12.9556 148.748 13.2C148.837 13.4444 148.854 13.6942 148.799 13.9493C148.743 14.2053 148.604 14.4333 148.382 14.6333L143.482 18.8667L144.948 25.1667C145.015 25.4556 144.993 25.7169 144.882 25.9507C144.771 26.1836 144.615 26.3778 144.415 26.5333C144.215 26.6889 143.982 26.7778 143.715 26.8C143.448 26.8222 143.193 26.7556 142.948 26.6L137.415 23.2667Z" fill="url(#paint4_linear_35_42)"/>
<defs>
<linearGradient id="paint0_linear_35_42" x1="-1.15323e-07" y1="15.8683" x2="22.8308" y2="15.8683" gradientUnits="userSpaceOnUse">
<stop offset="0.140625" stop-color="#B16CEA"/>
</linearGradient>
<linearGradient id="paint1_linear_35_42" x1="33" y1="15.8683" x2="55.8308" y2="15.8683" gradientUnits="userSpaceOnUse">
<stop stop-color="#CF67B9"/>
<stop offset="0.447917" stop-color="#FF5E69"/>
<stop offset="0.8" stop-color="#FF6367"/>
<stop offset="1" stop-color="#FF8A56"/>
</linearGradient>
<linearGradient id="paint2_linear_35_42" x1="64" y1="15.8683" x2="86.8308" y2="15.8683" gradientUnits="userSpaceOnUse">
<stop offset="0.0343749" stop-color="#FF6B63"/>
<stop offset="0.534375" stop-color="#FF8A56"/>
<stop offset="1" stop-color="#FFA84B"/>
</linearGradient>
<linearGradient id="paint3_linear_35_42" x1="95" y1="15.8683" x2="117.831" y2="15.8683" gradientUnits="userSpaceOnUse">
<stop offset="0.140625" stop-color="#FF8758"/>
</linearGradient>
<linearGradient id="paint4_linear_35_42" x1="126" y1="15.8683" x2="148.831" y2="15.8683" gradientUnits="userSpaceOnUse">
<stop stop-color="#FF8A56"/>
<stop offset="1" stop-color="#FFA84B"/>
</linearGradient>
</defs>
</svg>
