<svg width="438" height="438" viewBox="0 0 438 438" fill="none" xmlns="http://www.w3.org/2000/svg">
<g clip-path="url(#clip0_32_14)">
<path d="M362.901 71.2845C360.574 71.3337 358.318 72.0984 356.441 73.4745C354.981 74.9345 353.503 77.0516 353.503 79.1868C353.503 82.8368 357.81 87.8373 365.785 96.0315C399.036 128.042 415.753 167.261 415.644 214.547C415.516 266.87 397.941 308.9 363.741 341.458C356.55 347.9 353.594 352.955 353.576 357.28C353.576 359.397 355.036 361.606 356.496 363.723C358.239 365.419 360.514 366.463 362.938 366.679C370.858 366.679 381.918 357.335 396.39 339.14C424.532 304.647 437.27 266.541 437.982 214.602C438.639 162.644 422.342 127.422 390.477 91.0493C378.98 78.0553 369.435 71.3028 362.901 71.2845ZM75.117 71.321C68.5835 71.321 59.0205 78.0736 47.5595 91.0858C15.6585 127.458 -0.63875 162.681 0.0182501 214.638C0.74825 266.578 13.4685 304.666 41.6282 339.176C56.064 357.372 67.1417 366.734 75.0622 366.716C77.4819 366.506 79.7532 365.461 81.4863 363.759C82.9463 361.642 84.4062 359.434 84.4062 357.317C84.4062 352.992 81.4497 347.936 74.2592 341.512C40.077 308.936 22.484 266.925 22.3563 214.584C22.2468 167.298 38.9637 128.079 72.2152 96.068C80.1905 87.8738 84.5158 82.8915 84.4975 79.2233C84.4975 77.088 83.0375 74.971 81.5592 73.511C79.6818 72.1349 77.4261 71.3702 75.0987 71.321H75.117ZM203.889 87.6548C203.889 87.6548 215.843 125.633 155.545 210.423C97.9477 291.325 174.616 340.91 181.679 345.217C176.55 341.932 145.161 317.842 189.015 246.247C197.52 232.195 208.652 219.42 222.486 190.749C222.486 190.749 234.713 208.014 228.326 245.463C218.781 302.056 269.771 285.868 270.556 286.653C288.368 307.64 255.81 344.505 253.821 345.655C251.85 346.768 346.823 288.533 279.353 200.841C274.736 205.459 268.731 227.158 256.23 223.946C243.747 220.77 295.011 160.18 203.889 87.6548ZM181.679 345.217C182.098 345.509 182.372 345.655 182.372 345.655L181.679 345.217Z" fill="#AFB0B1"/>
</g>
<defs>
<clipPath id="clip0_32_14">
<rect width="438" height="438" fill="white"/>
</clipPath>
</defs>
</svg>
