<svg width="443" height="443" viewBox="0 0 443 443" fill="none" xmlns="http://www.w3.org/2000/svg">
<g clip-path="url(#clip0_32_18)">
<path d="M30.4477 148.042C-10.1404 187.842 -10.1404 254.379 30.4477 294.958L148.042 412.544C187.842 453.123 254.379 453.123 294.958 412.544L412.544 294.958C453.123 254.379 453.123 187.842 412.544 148.042L294.958 30.4477C254.379 -10.1404 187.842 -10.1404 148.042 30.4477L30.4477 148.042ZM272.982 272.982C244.515 301.361 198.485 301.361 170.105 272.982C141.639 244.515 141.639 198.485 170.105 170.105C198.485 141.639 244.515 141.639 272.982 170.105C301.361 198.485 301.361 244.515 272.982 272.982Z" fill="#AFB0B1"/>
</g>
<defs>
<clipPath id="clip0_32_18">
<rect width="443" height="443" fill="white"/>
</clipPath>
</defs>
</svg>
