<svg width="487" height="487" viewBox="0 0 487 487" fill="none" xmlns="http://www.w3.org/2000/svg">
<path d="M243.5 19.8599C213.451 19.8599 183.696 25.7767 155.934 37.2725C128.172 48.7682 102.947 65.6178 81.6993 86.8592C38.787 129.758 14.6792 187.942 14.6792 248.61C14.6792 349.717 80.3508 435.499 171.193 465.922C182.634 467.752 186.295 460.661 186.295 454.485V415.826C122.911 429.551 109.411 385.174 109.411 385.174C98.8853 358.639 84.0119 351.547 84.0119 351.547C63.1892 337.365 85.6137 337.822 85.6137 337.822C108.496 339.424 120.623 361.384 120.623 361.384C140.531 396.154 174.167 385.86 187.21 380.37C189.27 365.501 195.219 355.436 201.626 349.717C150.828 343.999 97.5124 324.326 97.5124 237.172C97.5124 211.781 106.208 191.422 121.081 175.181C118.793 169.462 110.784 145.672 123.369 114.791C123.369 114.791 142.59 108.615 186.295 138.124C204.372 133.091 224.05 130.575 243.5 130.575C262.95 130.575 282.628 133.091 300.705 138.124C344.41 108.615 363.631 114.791 363.631 114.791C376.216 145.672 368.208 169.462 365.919 175.181C380.793 191.422 389.488 211.781 389.488 237.172C389.488 324.555 335.944 343.77 284.917 349.489C293.154 356.58 300.705 370.534 300.705 391.807V454.485C300.705 460.661 304.366 467.981 316.036 465.922C406.878 435.27 472.321 349.717 472.321 248.61C472.321 218.57 466.402 188.824 454.903 161.071C443.404 133.318 426.549 108.101 405.301 86.8592C384.053 65.6178 358.828 48.7682 331.066 37.2725C303.304 25.7767 273.549 19.8599 243.5 19.8599Z" fill="#AFB0B1"/>
</svg>
