<svg width="448" height="448" viewBox="0 0 448 448" fill="none" xmlns="http://www.w3.org/2000/svg">
<path d="M255.5 239.75C255.5 243.927 257.159 247.933 260.113 250.887C263.067 253.841 267.073 255.5 271.25 255.5C275.427 255.5 279.433 253.841 282.387 250.887C285.341 247.933 287 243.927 287 239.75C287 235.573 285.341 231.567 282.387 228.613C279.433 225.659 275.427 224 271.25 224C267.073 224 263.067 225.659 260.113 228.613C257.159 231.567 255.5 235.573 255.5 239.75ZM318.5 192.5C315.519 192.498 312.599 193.344 310.081 194.94C307.563 196.536 305.552 198.816 304.281 201.513C312.506 207.769 319.331 214.944 324.363 222.862C327.764 221.506 330.587 219.005 332.343 215.792C334.1 212.578 334.681 208.853 333.987 205.257C333.293 201.661 331.366 198.42 328.539 196.091C325.713 193.763 322.162 192.493 318.5 192.5ZM224 28C115.763 28 28 115.763 28 224C28 332.237 115.763 420 224 420C332.237 420 420 332.237 420 224C420 115.763 332.237 28 224 28ZM331.188 237.081C333.2 242.988 334.25 249.156 334.25 255.5C334.25 298.988 284.9 334.25 224 334.25C163.1 334.25 113.75 298.988 113.75 255.5C113.75 249.156 114.8 242.988 116.812 237.081C110.201 234.166 104.792 229.067 101.493 222.638C98.194 216.209 97.2051 208.842 98.6922 201.771C100.179 194.7 104.052 188.355 109.661 183.799C115.27 179.244 122.274 176.755 129.5 176.75C141.356 176.75 151.637 183.269 157.019 192.938C172.856 184.275 192.106 178.587 213.062 177.144L238.613 119.787C240.494 115.5 245.263 113.312 249.769 114.625L289.844 126.219C292.339 121.585 296.309 117.917 301.125 115.795C305.942 113.673 311.328 113.22 316.431 114.505C321.534 115.791 326.063 118.743 329.298 122.894C332.534 127.044 334.292 132.156 334.294 137.419C334.294 150.456 323.706 161.044 310.669 161.044C300.387 161.044 291.638 154.438 288.4 145.25L252.438 134.881L233.625 177.1C255.106 178.412 274.838 184.144 291.025 192.981C296.406 183.313 306.687 176.794 318.544 176.794C335.956 176.794 350.044 190.881 350.044 208.294C350 221.113 342.256 232.181 331.188 237.081ZM256.244 273.394C249.725 278.513 236.862 284.025 224 284.025C211.138 284.025 198.231 278.513 191.756 273.394C187.687 270.2 181.825 270.9 178.631 274.969C175.437 279.038 176.137 284.9 180.206 288.094C191.45 297.019 208.644 302.75 224 302.75C239.356 302.75 256.55 297.019 267.838 288.094C271.906 284.9 272.606 278.994 269.412 274.969C267.873 273.016 265.623 271.754 263.154 271.458C260.685 271.163 258.2 271.859 256.244 273.394ZM129.5 192.5C125.838 192.493 122.287 193.763 119.461 196.091C116.634 198.42 114.707 201.661 114.013 205.257C113.319 208.853 113.9 212.578 115.657 215.792C117.413 219.005 120.236 221.506 123.638 222.862C128.669 214.944 135.494 207.769 143.719 201.513C142.448 198.816 140.437 196.536 137.919 194.94C135.401 193.344 132.481 192.498 129.5 192.5ZM161 239.75C161 243.927 162.659 247.933 165.613 250.887C168.567 253.841 172.573 255.5 176.75 255.5C180.927 255.5 184.933 253.841 187.887 250.887C190.841 247.933 192.5 243.927 192.5 239.75C192.5 235.573 190.841 231.567 187.887 228.613C184.933 225.659 180.927 224 176.75 224C172.573 224 168.567 225.659 165.613 228.613C162.659 231.567 161 235.573 161 239.75Z" fill="#AFB0B1"/>
</svg>
